<?xml version="1.0" encoding="UTF-8"?>
<svg id="Layer_2" data-name="Layer 2" xmlns="http://www.w3.org/2000/svg" viewBox="0 0 1024 1024">
  <defs>
    <style>
      .cls-1 {
        fill: #2c7242;
      }

      .cls-2 {
        fill: #a6ee9b;
      }

      .cls-3 {
        fill: #030202;
      }

      .cls-4 {
        fill: #010101;
      }

      .cls-5 {
        fill: #327f4a;
      }

      .cls-6 {
        fill: #e7b974;
      }

      .cls-7 {
        fill: #e15204;
      }

      .cls-8 {
        fill: #3f8951;
      }

      .cls-9 {
        fill: #3a8450;
      }

      .cls-10 {
        fill: #f4951d;
      }

      .cls-11 {
        fill: #fde6b5;
      }

      .cls-12 {
        fill: #abc980;
      }

      .cls-13 {
        fill: #fbe372;
      }

      .cls-14 {
        fill: #fbf4d5;
      }

      .cls-15 {
        fill: #030101;
      }

      .cls-16 {
        fill: #a0ed9b;
      }

      .cls-17 {
        fill: #f9f0c4;
      }

      .cls-18 {
        fill: #fcf4d4;
      }

      .cls-19 {
        fill: #f9edc2;
      }

      .cls-20 {
        fill: #3d9053;
      }

      .cls-21 {
        fill: #72d276;
      }

      .cls-22 {
        fill: #234827;
      }

      .cls-23 {
        fill: #010201;
      }

      .cls-24 {
        fill: #2c5e36;
      }

      .cls-25 {
        fill: #f5980f;
      }

      .cls-26 {
        fill: #6bcc71;
      }

      .cls-27 {
        fill: #020202;
      }

      .cls-28 {
        fill: #040301;
      }

      .cls-29 {
        fill: #9f977e;
      }

      .cls-30 {
        fill: #efc27e;
      }

      .cls-31 {
        fill: #040403;
      }

      .cls-32 {
        fill: #040202;
      }

      .cls-33 {
        fill: #fbdc59;
      }

      .cls-34 {
        fill: #fce066;
      }

      .cls-35 {
        fill: #030201;
      }

      .cls-36 {
        fill: #428e54;
      }

      .cls-37 {
        fill: #337644;
      }

      .cls-38 {
        fill: #2c7a48;
      }

      .cls-39 {
        fill: #307d4a;
      }

      .cls-40 {
        fill: #fbd24a;
      }

      .cls-41 {
        fill: #050403;
      }

      .cls-42 {
        fill: #f49b0d;
      }

      .cls-43 {
        fill: #fbd652;
      }

      .cls-44 {
        fill: #b0450e;
      }

      .cls-45 {
        fill: #060505;
      }

      .cls-46 {
        fill: #dd560c;
      }

      .cls-47 {
        fill: #295b31;
      }

      .cls-48 {
        fill: #96c679;
      }

      .cls-49 {
        fill: #afa48c;
      }

      .cls-50 {
        fill: #314a2f;
      }

      .cls-51 {
        fill: #080605;
      }
    </style>
  </defs>
  <path class="cls-5" d="M828.87,714.86c-7.09-1.81-3.65,16.41-3.94,22.1,11.41,5.77,3.11,2.84,16,5.28,1.09,4.03-.02,8.27.62,12.49l18.76,1.08.5,25.79c8.52.85,17.11.48,26.29.36l.67-16.26c4.75-.61,9.76-.95,14.6-.21l.74,15.37c7.74-3.98,8.87-10.99,20.67-12.05l.38-15.59c4.49-1.58,12.59.86,15.77-1.06l.4,27.65c-1.28,1.01-3.76.9-4.08,2.33-.35,1.54-1.81,14.37,1.82,13.04-4.73,1.07.02,14.18-3.08,15.92l-.04-15.39c-5.1-.18-9.79-.15-15.06.23l-.76,15.26-16.61.36-.66,13.6-20.02.24-101.04,2.53-1.11-9.85c-4.37-1.17-8.63-.44-12.59-1.05-5.59-6.32-1.45-9.02,2.32-17-9.97-10.16,5.33-19.03-1.35-18.35,9.15-13.86,17.08-25.77,16.87-43.71l-.51-43.51-18.8-1.13-.76-21.31-30.03-.34c-1.27-8.79-.67-17.45-.77-26.53,8.92-2.41,22.31,3.6,22.19-4.11l-.49-31.31-25.64.1-.38,23.32c-7.54.64-14.7.51-22.1.25l-.14-23.21,11.55-.36-.43-28.07c-6.69-1.03-12.96-.48-19.41-.55l-.16,20.78c-6.56.36-12.69.41-19.22-.17l-.81-26.43-29.03-.47c-.59-6.31-.32-12.45-.05-18.73l18.53-.79c2.27-17.38-4.36-11.27-10.16-20.71-1-1.62-2.96-1.85-4.34-1.51,2.7-2.65,6.88-2.52,10.45-4.68-2.6-2.61-6.45-3.2-6.43-6.53.02-4.76-.85-9.62.19-13.72l74.37,74.1c26,25.9,47.1,54.74,66.18,86.03,9.85,16.17,19.33,31.63,30.12,46.53ZM674.72,529.43c1.23-1.45-.93-2.89-1.81-3.72-1-.94-2.6-1.01-3.55.57-1.08,1.79.19,3.04,1.65,3.31.88.16,2.84.86,3.71-.17Z"/>
  <path class="cls-23" d="M439,702c0,3.9-.08,7.34.78,11.09-.19-.81.44,38.83-.05,43.21l15.95.99,1.36,13.59,10.89.54.73,11.27c3.58.58,7.63.02,9.66,2.95.87,1.26,1.2,2.99,2.76,4.33,11.32,9.73,22.4,18.99,35.34,26.68,41.52,24.65,55.18,20.52,102.54,20.66v-30.3c0-14.57,2.22-29.74,8.99-42.8l11.7-.67c.89-.05,1.85-.44,2.16.15.24.45.13,1.01.19,1.37-3.2,10.88-8.24,21.64-8.32,33.55l-.49,68.92c4.1,1.58,7.64.74,12.02.94l.6,28.81c-4.66,4.53-8.11,9.66-11.66,14.68-5.76,8.16-13.5,11.08-9.1,28.92,8.25,2.27,17.6,1.15,26.64.53,8.65-.59,17.03-.66,25.27-.63l42.95.18,30.97.02.27-11.73,7.74-.21c2.19-.06,4.38.25,7.06-.2l.2-111.71c.31.02.63-.15.93-.1,3.97.62,8.23-.12,12.59,1.05l1.11,9.85,101.04-2.53,20.02-.24.66-13.6,16.61-.36c-.01.22-.02.46-.02.68-.1,4.45.61,9-.18,13.67l-16.35.47-.67,13.17-28.79,1.18-93.01,2.29.22,87.35-13.18.44-.17,11.63-14.03.84c-.77,4.33.6,8.27-.73,12.42l-142.19-.39.16-34.77c0-1.74,2.27-2.85,3.03-4.15,5.21-8.87,11.22-16.76,18.5-23.68l-.13-23.11-11.94-.68-.53-16.58h-40.17s-.28,48.05-.28,48.05c-.04,7.71-.84,14.89-1.6,21.99l-13.47-.07.97-25.9-.06-46.6c-21.14-.96-49.16-15.96-66.14-27.9-9.92-6.98-18.48-14.31-26.58-23.27-1.72-1.9-4.9-2.16-6.29-4.66-1.18-2.12-1.94-4.68-5.02-5.78v89.54c0,3.54-.08,5.92-3.76,7.61-8.57,3.96-16.74,9.09-22.64,16.2-7.42,6.79-12.02,15.93-11.03,26.86,8.42.49,16.36.88,24.11-.09l25.85.8,52.87.32c.71,0,1.26-.49,1.12-.88,6.7.03,13.44.15,20.41-.04l.84-5.89c5.06.2,9.57.08,14.61-.26.06,1.93.41,3.47.34,5-.09,1.98.43,6.26-1.41,7.44-4.14,1.45-8.48-.32-12.92.53l-1.05,8.23-138.77-.19.45-33.86,9.59-14.93,17.01-14.18c2.88-2.4,5.67-3.6,10.09-3.3l-.29-103.96c-2.49-.68-4.3-.58-6.29-1.36l-.36-14.69c-4.95.09-9.11.68-13.97-.28v-65.45c-.01-2.1.65-4.17-1.26-4.92.24-.33-.02-.98.52-1.14.95-.28.89.34,1.44,1.1l2.86,3.95c-2.44,5.65.1,12.19,6.17,13.53,1.47.32,2.89-1.42,3.99-1.53ZM429.1,755.63c6.68,1.59,8.01-.26,9.61-3.95,1.09-7.93-.32-15.66-1.39-23.56,2.69-6.67,1.72-14.1-2.54-20.44-2.53,2.4-5.73,8.74-3.15,11.29,4.61,4.55,2.97,7.19,2.04,12.87l-2.52,15.42c-.49,3.01,1.39,6.49-2.05,8.37Z"/>
  <path class="cls-4" d="M341,290c2.8-.65,5.81.71,8.54.44-13.27,11.1-28.33,19.83-42.59,29.62-7.61,5.23-26.65,15.11-32.04,21.98-6.81,3.67-11.21,10.84-14.76,18.18l-.68,26.16.35,46.59,178.11-.29c.76-3.72-.37-6.88-.96-11.22l14.27-4.88c2.76,4.29,4.44,8.89,6.77,13.61-5.11,4.22-11.37,4.26-17.95,4.72l-.56,12.09-160.49.03c1,29.13-4.25,29.53,15.27,48.61,3.22,3.15,6.71,4.85,11.06,5.77l.7,10.49,14.31.58c.59,2.16.12,3.98,1.41,6.02l116.97,2.03.39,10.56-.13,170.92c-1.1.12-2.52,1.86-3.99,1.53-6.07-1.34-8.61-7.88-6.17-13.53l-2.86-3.95c-.55-.76-.5-1.38-1.44-1.1-.54.16-.28.81-.52,1.14-4.86,6.76-13.25,10.98-18.7,18.26-3.04.48-5.94-.55-9.09.29-.93,1.38-.32,6.44-2.7,6.75-6.2.81-13.67,2.52-19.61.83l-10.76-8.16-.18-7.83-9.37-.36c1.54-5.17-2.48-9.31-2.63-13.61l-1.14-33.25c2.33-2.61,7.29-3.22,7.53-6.36l.97-12.24c4.93.63,7.07-2.17,9.55-5.37,3.83-4.95,8.36-8.95,12.46-13.6,14.36-11.24,29.11-20.78,44.64-30.58l-.05-45.89-102.87-1.66c-1.96-.03-1.53-4.77-1.75-5.78l-14.52-1.33-.94-12.03-11.74-.33c-28.07-24.95-29.98-28.31-28.57-66.8-3.47-.94-6.89.29-10.34-1.14l-.71-11.8-8.86-.88.05-74.32c6.42-15.52,17.12-27.81,31.3-36.8l32.4-20.53,17.82-10.86c4.23-2.58,10.48.3,14.79-.7ZM365,672.04c.37,2.98-.9,23.94,5.8,21.62,4.09-1.42,4.69,2.04,7.07,3.38,3.83,2.15,10.08.24,13.07-3.2,10.12-4.93,18.39-13.04,26.42-21.46,2.23-2.34,4.04-4.59,7.82-5.86l-.18-68.72c-12.21,8.13-23.52,15.87-34.8,24.34-4.15,3.12-7.3,6.7-9.78,11.19-6.09,3.08-9.3,8.72-9.26,15.71l-6.38,3.96.23,19.03Z"/>
  <path class="cls-10" d="M636.63,124.17c.03,1.67.66,3.33,1.28,4.84-1.86,3.65-1.08,8.22-.53,12.49l13.59.7.77,9.04,9.31.05c1.75,0,1.74,2.43,1.86,3.52-.52,2.46-.31,5.15.24,8.02l6.92.63.84,19.46,11.99.37.21-10.37c1.69,3.15.94,7.35.75,11.02-.17,3.14-.79,6.35.33,9.91,2.05.56,3.92.19,5.9,1.2l.04,22.87-.12,42.05c.28.71.43,1.61,1.01,1.17,0,2.58-.16,5.2-.02,7.78.29,1.43-14.06-2.1-13.54-1.76-1.51-.98-.5-5.32-2.41-6.21-8.91-3.21-18.36-3.77-27.6-6.44-2.19-.63-4.25-.95-6.02.41-4.71,3.61-.38,11.92-3.9,16.73-2.11,2.88-4.61,5.44-4.74,9.53l33.75,7.35,10.49,2.53c5.66,1.36,10.86,1.71,16.02,2.8l24.88,5.24c1.57.33,3.38,1.61,5.95,1.5l.14,29.28c-3.7,1.64-6.15-1.22-9.22-2.14-17.1-5.12-33.87-8.37-50.83-10.65-3.14-.42-6.82.18-9.87-.95-2.08-.77-4-.92-6.12-1.34l-32.42-6.35-49.69-8.33-8.74-1.34c-8.94-1.38-17.73-2.47-26.37-4.8-8.83-2.38-17.12-7.22-26.76-6.91-7.48.24-14.82,2.17-22.01,3.92-9.79,2.38-19.27,1.69-29.29,1.42l-28.37-.77-50.77-1.13c-8.32-.19-16.22-.81-23.99-.05-2.74.27-5.74-1.09-8.54-.44.12-.41-.36-.96-1.05-.96h-22.95c-1.22-2.12,25.25-.78,27.48-.56,12.8,1.27,25.51.17,38.57.49,5.14.13,9.93-1.29,14.84-1.57,2.35-.13,4.05,2.3,6.23,2.34l40.27.75c17.62.33,25.07,2.06,42.8-2.05l9-2.09c7.61-1.77,20.27.22,27.7,3.73,4.73,2.24,8.92,3.33,14.14,4.14l21.54,3.38,32.29,5.62c4.77.83,9.36.44,14.02,1.55l10.85,2.58c3.97.94,8.83,2.02,11.81-2.87-5.4-1.85-10.9-1.1-15.85-3.16-3.16-1.32-2.47-10.93-7.82-9.19.37-3.51-.88-7.15.94-10.23.37,1.07-.42,4.33,1.18,4.72,4.12,1,8.13-.02,12.07-.49,5.17-.61,9.66,1.07,15.31-.34-3.61-3.3-4.8-7.24-3.62-11.51-2.4-.95-3.46-4.43-5.05-5.64-3.94-3-9-3-13.41-4.96-2.47-1.1-4.73-4.18-7.37-3.73l7.87-15.96,4-10.69,3.39-7.46c2.75-6.05-2.02-49.69-5.03-60.09,2.56-.7,2.89-4.03,4.94-5.82.96-.83,3.64.87,3.76-.56.19-2.19.52-4.11-1.23-4.94-1.4-.66-2.16-1.5-1.74-2.97,1.01-3.55,4.87-.4,7.22-6.34.36-.9.94-1.66,1.51-1.94,2.05-1,1.96,2.07,5.06,3.4.83.36,3.48-.18,3.21-1.6-.63-3.34-3.63-5.76-4.92-8.93-1.46-3.6-1.5-7.89-3.64-11.09l-16.95.1c-2.33.01-4.36-3.77-8.63-2.09-1.33.52-4.38.42-4.65-1.16,3.54.24,7.12.57,10.89-1,1.21.73,1.59,3.1,2.99,3.12l23.66.22Z"/>
  <path class="cls-37" d="M577.07,922c.83,2.2-11.02.15-12.7,1.31-.69.88-.24,3.12-1.17,3.69.07-1.53-.28-3.07-.34-5-5.04.34-9.55.46-14.61.26l-.84,5.89c-6.96.19-13.71.07-20.41.04l-54.84-.26c-4.11-6.28,3.03-23.93-7.37-24.81-3.62-.31-9.36,2.09-11.9,4.66-4.88-4.77-12.06-6.21-18.8-6.6,5.9-7.11,14.07-12.25,22.64-16.2,3.68-1.7,3.75-4.08,3.75-7.61v-89.54c3.08,1.1,3.84,3.66,5.03,5.78,1.39,2.5,4.57,2.75,6.29,4.66,8.09,8.96,16.65,16.29,26.58,23.27,16.98,11.94,45,26.93,66.14,27.9l.06,46.6-.97,25.9,13.47.07Z"/>
  <path class="cls-4" d="M663.95,317.08c-.19,1.38,3.24.38,3.59,1.33,1.43,3.92-.09,8.62.7,12.37,3.29,1.02-.14,11.29-.13,14.24l.85,154.05c5.17,5.76,9.14,14.3,15.77,16.14l7.1,1.97c.37,3.26.3,6.73,2.88,9.07l9.37,8.51c2.07,1.88,5.95.05,8.52.86,1.26,3.21.4,6.72,1.28,10.29,10.71,8.35,13.13,13.59,24.5,20.68,1.83,1.14,1.79,3.7,3.17,5.12,12.26,12.6,24.02,24.69,34.87,38.78,19.22,24.96,35.46,51.08,52.14,77.76,10.63,16.99,13.65,21.09,35.07,20.71,1.58,6.58-2.68,14.1,4.74,14.65l19.68.19,66.94-.81-.14,71.84-16.77.32c-3.64,1.33-2.18-11.5-1.82-13.04.33-1.43,2.81-1.31,4.08-2.33l-.4-27.65c-.07-4.75.62-9.54,0-15.02l-76.19.64c-1.07-4.85-.6-9.12-.95-13.54-3.66-1.1-7.85.45-11.4-.91-7.7-2.95-14.88-6.51-22.53-8.46-10.79-14.9-20.27-30.36-30.12-46.53-19.07-31.29-40.18-60.13-66.18-86.03l-74.37-74.1c-2.43-2.43-3.46-5.26-3.48-9.29l-.6-114.85-.05-67.93c3.05,1.13,6.72.53,9.87.95Z"/>
  <path class="cls-34" d="M476.84,256.01c-1.18,2.07,5.05.26,10.26,5.86,4.54,4.88-7.01,2.66-9.78,12.47-1.68,5.94-8.55-1.08-13.22,4.52l-40.2-.25-107.83-1.8c-15.22-.25-29.55-.25-43.93-1.6l-.38-14.18-10.86-.14c3.22-1.57,7.38-.98,11.09-.86,4.23.14,8.94,1.35,13.33-.55,1.44-3.09-.66-6.9,1.74-9.15l79.9,1.05,23.05.87,34.9,1.15,51.92,2.61Z"/>
  <path class="cls-25" d="M604.87,292.14c5.35-1.75,4.66,7.87,7.82,9.19,4.95,2.07,10.45,1.31,15.85,3.16-2.98,4.9-7.84,3.82-11.81,2.87l-10.85-2.58c-4.66-1.11-9.25-.72-14.02-1.55l-32.29-5.62-21.54-3.38c-5.22-.82-9.41-1.91-14.14-4.14-7.43-3.52-20.09-5.5-27.7-3.73l-9,2.09c-17.73,4.12-25.18,2.38-42.8,2.05l-40.27-.75c-2.18-.04-3.88-2.48-6.23-2.34-4.91.28-9.7,1.69-14.84,1.57-13.06-.32-25.76.78-38.57-.49-2.23-.22-28.69-1.56-27.48.56l-37.09-.22c-1.63,0-3.04.49-3.86,1.23-3.38-2.45-.32,3.33-7.13-7.98,2.35-.69,3.29-4.43,3.23-6.88,14.38,1.35,28.71,1.34,43.93,1.6l107.83,1.8,40.2.25c23.93.15,32.93-11.15,68.15,1.59,10.7,3.87,43.13,7.05,52.99,10.22,1.6.51,20.12,5.26,19.64,1.49Z"/>
  <path class="cls-3" d="M550.94,89c.02.29.25,1.01,1.09,1.01l45.89-.02c.1,4.16.31,7.77-.2,11.76-2.75-.45-5.4-3.06-8.14-3.1-5.46.87-10.83.93-16.66,1.01-7.48.1-14.73,2.24-21.64.54.32-1.49-.65-2.96-1.05-4.2s.99-4.38-.48-5.46l-91.69.44c-2.6.01-4.14.36-5.56,3.08-2.1-3.86-7.03-3.94-10.82-2.32l-.65,10.71-31.87,1.43c-.99-1.35-2.89.68-3.94.46-2.32-.48-4.23-2.17-6.68-1.25-4.69,1.77-1.06,8.65-2.65,11.87,4.31.57,8.1-1.11,11.16,1.03l-13.03-.16-15.11.18c-.21-2.05,12.33-.42,14.65-1.12l.51-12.58,15.02-.21.91-12.56,30.79-.32.51-12.29,108.78-.18.87,12.25Z"/>
  <path class="cls-15" d="M710.85,283.87c1.82.79,3.51,2.34,5.9,2.61,1.88.21,5.52.05,6.06,2.51.73,3.3.02,6.49.05,9.54l-4.94.56-24.88-5.24c-2.56.16-1.73-19.31-2.05-24.94-.15-2.58.02-5.19.02-7.78l-.03-42.07c0-.77-.24-1.57-.85-1.14l-.04-22.87c-1.98-1.01-3.85-.63-5.9-1.2-1.12-3.56-.5-6.78-.33-9.91l20,.22,1.33,70.83.79,26.78,4.88,2.11Z"/>
  <path class="cls-35" d="M296,250c-2.98,0-5.99-.24-8.93.33-2.4,2.25-.3,6.06-1.74,9.15-4.39,1.91-9.1.69-13.33.55.2-2.99-.61-6.1.34-9.33,4.24-.97,8.22-.43,12.51-.83l.4-12.96c11.01-.77,21.56.59,32.64-1.43l1.99-47.45c2.4,1.77,4.08.29,7.72-1.81l2.38,11.88.46,29.42c.09,5.55,1.55,11.68-.44,17-2.43,6.52-30.55-.34-34.01,5.48Z"/>
  <path class="cls-41" d="M376,120.73c-2.97-.23-4.76.92-6.78,3.38-1.33,1.14-4.09.35-6.28,1.13-.28,2.83-.32,5.64-.16,9.23,3.42.8,7.5.97,10.86.14.83-.49.04-3.53,1.35-3.7-.04,1.5.21,3.1-.12,5.03h-13.83c-.22,6.64-.08,12.57-1.02,18.86l-12.34.38-2.56,27.18h-11.43s-.93,33.65-.93,33.65c-1.69,3.36-.47,7.33-.77,11-.21,2.64.07,5.35,0,8-.12,4.79.29,9.57-.27,14.92l-35.73.08c3.46-5.81,31.58,1.05,34.01-5.48,1.99-5.32.52-11.45.44-17l-.46-29.42-2.38-11.88c-3.64,2.11-5.32,3.58-7.72,1.81.05-1.31-1.11-4.38.41-5.21l11.59-.84.5-27.23,13.78-.68.25-17.7,13.98-.87.76-15.07c5.35.72,10.45-1.26,14.85.3Z"/>
  <path class="cls-45" d="M668.11,345.02c-.02-2.95,3.42-13.22.13-14.24l53.78.44c1.31.01,2-.58,1.99-1.35l-.14-29.28c-2.56.11-4.38-1.17-5.95-1.5l4.94-.56c-.03-3.05.67-6.25-.05-9.54-.54-2.46-4.18-2.29-6.06-2.51-2.39-.27-4.08-1.82-5.9-2.61l12.71,1.94,1.13,14.42,13.04.39-.15,31.21-13.61.19-1.8,12.9-54.04.1ZM702.1,339.65c-6.08-2.41-9.25.16-13.95.92-2.38.38-17.8-4.58-15.47,3.29l36.67.19c.02-4.89-4.6-3.35-7.25-4.4Z"/>
  <path class="cls-32" d="M636.63,124.17l-23.66-.22c-1.4-.02-1.78-2.39-2.99-3.12-3.76,1.57-7.34,1.24-10.89,1-1-6.01.04-11.83-.53-18.91l-44.34-.34c-1.05,0-1.94.02-2.61-.46-.5-.36-.47-1.28-.33-1.92,6.91,1.69,14.16-.44,21.64-.54,5.83-.08,11.2-.14,16.66-1.01,2.74.04,5.38,2.65,8.14,3.1.5-3.99.3-7.6.2-11.76l-45.89.02c-.84,0-1.07-.72-1.09-1.01h47.98s.12,13.93.12,13.93l12.56.69,1.25,6.58,23.67.26c.43,4.89.04,9.36.12,13.72Z"/>
  <path class="cls-4" d="M676,151.88c2.48-1.03,4.8-.23,7.01.29l.09,20.74-.21,10.37-11.99-.37-.84-19.46-6.92-.63c-.55-2.86-.76-5.56-.24-8.02.22-1.04.92-1.65.16-3.06,4.47-.48,8.96,1.79,12.94.13Z"/>
  <path class="cls-51" d="M676,151.88c-3.98,1.66-8.46-.61-12.94-.13.76,1.41.06,2.02-.16,3.06-.12-1.09-.1-3.51-1.86-3.52l-9.31-.05-.77-9.04-13.59-.7c-.54-4.27-1.33-8.85.53-12.49,8.01,1.04,16.09.72,24.68.86l.7,21.29c5.06-.05,9.14-.87,12.72.72Z"/>
  <path class="cls-44" d="M317,289.05h22.95c.69,0,1.17.54,1.05.95-4.31,1-10.55-1.88-14.79.7l-17.82,10.86c-2.22-2.82-16.77-.21-21.3-3.49l-11.04-8c.82-.74,2.23-1.24,3.86-1.23l37.09.22Z"/>
  <path class="cls-3" d="M394.01,115.82l-.33,14.63c-6.66.45-12.7-.29-18.69.45-1.31.16-.53,3.2-1.35,3.7-3.37.84-7.45.66-10.86-.14-.17-3.59-.13-6.39.16-9.23,2.19-.78,4.95,0,6.28-1.13,2.02-2.46,3.81-3.61,6.78-3.38,2.5.2,2.47-2.81,2.9-4.73l15.11-.18Z"/>
  <path class="cls-31" d="M260.91,260.89l10.86.14.38,14.18c.07,2.45-.87,6.2-3.23,6.88l-9.84-.19c.74-5.29-1.93-21.05,1.83-21.01Z"/>
  <path class="cls-4" d="M935,811.08l-15.88.78c0-.23.01-.46.02-.68l.76-15.26c5.26-.38,9.96-.41,15.06-.23l.04,15.39Z"/>
  <path class="cls-21" d="M461.03,323.15c-3.88,7.42-2.88,36.37-2.47,46.48.19,4.67,3.95,15.11,10.69,15.24,9.15.18,18.31,1.07,27.42-.49,5.05-.86,7.41-7.7,7.62-12.34.6-13.52.36-26.14.2-39.48-.04-3.17-1.8-6.1-2.6-8.72-.39-.92.31-.83,1.13-.75,14.78-.69,28.47,1.06,42.92,4.1l64.11,13.47c.17,4.24-.41,7.55.15,11.11.73.57,2.27.21,2.9.27,2.75.28,7.93-.2,11.23.58.96,4.96-.39,9.9,1.17,14.67l12.98.84.02,18.52c-4.11.85-8.13.64-12.32.08l-1.82-6.13c-4.54-.54-9.14-1.12-13.66.05l-.18,27.42,28.29.82.04,36.54-31.68.44-.17,33.02,17.12,1.11c1.3.08.86,2.43.32,3.02-2.29,2.5-10.75-.59-14.02,2.38l-.48,27.21-19.98.31.34,25.73c18.7,3.42,12.24-3.02,20.73-5.51,1.7-.5,1.71-3.35,2.93-4.15,2.79-1.82,6.53-1.31,9.89-.67,1.13,5.9.39,11.46.35,17.88,5.02.74,9.99.1,15.03.15.97-2.09-.12-5.23,1.8-6.38,1.5-.73,3.62.55,5.11-.07.84-.35.87-2.1,1.87-2.98,1.91-1.68,4.4-2.18,6.02-3.77,1.37-.33,3.34-.11,4.34,1.51,5.8,9.44,12.43,3.34,10.16,20.71l-18.53.79c-.27,6.28-.54,12.42.05,18.73l29.03.47.81,26.43c6.53.58,12.66.54,19.22.17l.16-20.78c6.45.07,12.72-.48,19.41.55l.43,28.07-11.55.36.14,23.21c7.4.27,14.56.39,22.1-.25l.38-23.32,25.64-.1.49,31.31c.12,7.71-13.27,1.7-22.19,4.11.1,9.08-.51,17.74.77,26.53l30.03.34.76,21.31,18.8,1.13.51,43.51c.21,17.93-7.72,29.84-16.87,43.71-1.68,2.54-4.86,4.75-6.94,7.56-6.7,9.05-13.36,17.41-21.37,25.84l-.19,108.55c-8.45,5.09-11.93,11.68-19.66,17.35l-42.95-.18c-1.05-6.77.9-13.84-1.13-20.86-1.62-2.27-6.39-5.54-9.05-6.12-4.14-.34-7,3.99-10.85,4.09-1.97-5.66-16.78-5.77-21.78-5.94,3.55-5.02,7-10.15,11.66-14.68l-.6-28.81c-4.38-.2-7.92.64-12.02-.94l.49-68.92c.08-11.92,5.13-22.67,8.32-33.55.44-1.51,2.9-2.98,2.49-5.59l7.38-.53c1.83-3.57,7.27-14.11,5.35-17.09,3.61-3.35,9.81-4.14,12.87-8.65.78-4.08.45-10.39-.84-14.46-.66-2.09-6.08-2.9-7.86-2.29-6.02,7.02-11.16,15.08-16.07,22.5-5.59,8.45-12.68,16.21-17.38,25.27-6.77,13.06-8.99,28.23-8.99,42.8-1.35-2.56-4.79-2.99-6.94-5.05-4.79-4.59-9.67-8.36-16.89-7.99-.85-3.58-.2-7.09-.29-9.95-.05-1.77,1.13-6.07-.86-6.86l-16.33-.6.31-53.71c1.86-.06,2.48-1.93,3.84-3.18,9.27-8.54,17.14-17.86,25.47-27.3,6.46-7.32,27.32-28.84,18.38-37.38-1.7-1.63-4.05-2.94-6.7-2.95-.32-.58.13-2.75-.81-3.21-3-1.25-6.48-.76-9.97-.55-15.21,17.46-42.24,45.77-61.66,57.24-6.15,3.63-14.55,1.35-21.01,2.66-.97-4.45.42-7.47-1.23-10.68,2.77,1.93,1.69-20.8,1.27-23.07l-20.51-.23.02,23.02-.97.11c-.27-12.81-.71-25.96.39-39,.54-6.37,8.26-9.98,10.99-14.66s6.06-7.1,9.62-10.61c12.2-12.05,23.57-24.27,38.01-34.36-1.65-4.81-3.33-9.22-6.61-12.76l-29.32,22.98-.08-84.42c-4.31-.16-8.42,1.44-12.07,3.4-1.79.97-2.86.73-5.21.48-7.71-.81-15.34.07-22.7.68-4.11-1.66-18.47,4.36-18.82.9l-.98-9.73c-6.31-.33-12.71-.55-19.15.13-2.82.3-4.95,1.79-8.4.44,1.46,4.02-.62,7.37-.62,10.3l-.39-10.56-116.97-2.03c-1.3-2.03-.83-3.86-1.41-6.02l-14.31-.58-.7-10.49c-4.35-.93-7.84-2.63-11.06-5.77-19.52-19.08-14.27-19.47-15.27-48.61l160.49-.03.56-12.09c6.58-.46,12.84-.5,17.95-4.72-2.33-4.72-4.01-9.32-6.77-13.61l-14.27,4.88c.59,4.34,1.72,7.5.96,11.22l-178.11.29-.35-46.59.68-26.16c3.55-7.34,7.95-14.51,14.76-18.18,1.82,6.15,7.21,10.12,14.08,10.14l16.04.07c16.67.07,10.9-10.17,20.2-11.04,5.08-.48,32.6-4.07,33.07-8.66.31-3.01-3.21-8.5-6.01-9.41-3.48-1.13-7.17,1.3-9.37-1.08l52.11.29,66,.81ZM295.03,381.41l-.12-20.02-15.33.12c-.31,6.78-.86,13.14.16,19.75,5.08.55,9.74.42,15.3.15ZM345.76,361.08l-19.5.05-.1,19.87c4.71.76,9.04.64,13.7,0,1.64-3.19,5.78-16.46,5.9-19.92ZM543.39,447.94c5.19.03,2.68-8.31,4.59-9.45,2.2-1.31,9.78.35,14.01-.78l-.09-35.82c0-3.68-7.86-.31-11.34-2.93-3.02-2.27-.05-7.5-2.48-9.44-.64-.51-1.83-1.34-3.27-1.34l-39.61.02c-7.11,0-2.74,9.25-5.04,10.95-3.21,2.37-14.52-3.79-14.41,4.79l.43,33.69c4.21.69,8.11.85,12.18.89l1.14,7.22c.29,1.84,3.64,2.02,5.57,2.03l38.32.18ZM335.71,459.16l.21-11.14-55.85-.03c-.19,3.88-.1,7.13.19,11.21l55.44-.04Z"/>
  <path class="cls-38" d="M647.96,314.79c2.13.42,4.04.57,6.12,1.34l.05,67.93.6,114.85c.02,4.03,1.05,6.87,3.48,9.29-1.05,4.1-.17,8.96-.19,13.72-.02,3.34,3.84,3.92,6.43,6.53-3.57,2.16-7.75,2.03-10.45,4.68-1.62,1.59-4.11,2.09-6.02,3.77-1,.88-1.03,2.64-1.87,2.98-1.49.61-3.61-.66-5.11.07-1.92,1.15-.83,4.29-1.8,6.38-5.04-.05-10.01.58-15.03-.15.04-6.43.77-11.99-.35-17.88-3.36-.63-7.1-1.14-9.89.67-1.23.8-1.23,3.65-2.93,4.15-8.49,2.49-2.03,8.93-20.73,5.51l-.34-25.73,19.98-.31.48-27.21c3.27-2.97,11.73.12,14.02-2.38.54-.59.98-2.93-.32-3.02l-17.12-1.11.17-33.02,31.68-.44-.04-36.54-28.29-.82.18-27.42c4.52-1.17,9.12-.59,13.66-.05l1.82,6.13c4.19.56,8.21.77,12.32-.08l-.02-18.52-12.98-.84c-1.56-4.76-.21-9.71-1.17-14.67-3.29-.78-8.47-.29-11.23-.58-4.3-1.9-.52-9.89-3-14.33-1.18-2.11-4.25-2.81-3.62-5.1s.56-5.66,3.47-5.64,5.68,1.16,8.48,1.51l1.23,8.02c.14.89,2.82.62,3.61.34-1.3.47,5.65-9.03,12.02-5.13,1.98,1.21,2.37,4.13,5.08,3.14,1.57-.57,4.57-2.07,3.07-4.38-.9-1.39-5.07-1.47-5.24-3.65-.47-6.09,4.06-11.62,9.76-12.02Z"/>
  <path class="cls-26" d="M828.87,714.86c7.64,1.95,14.82,5.52,22.53,8.46,3.55,1.36,7.74-.19,11.4.91.35,4.43-.12,8.7.95,13.54l76.19-.64c.62,5.48-.06,10.27,0,15.02-3.19,1.93-11.28-.51-15.77,1.06l-.38,15.59c-11.81,1.05-12.94,8.07-20.67,12.05l-.74-15.37c-4.84-.75-9.85-.4-14.6.21l-.67,16.26c-9.18.12-17.77.49-26.29-.36l-.5-25.79-18.76-1.08c-.64-4.22.47-8.46-.62-12.49-12.88-2.44-4.59.49-16-5.28.28-5.7-3.15-23.91,3.94-22.1Z"/>
  <path class="cls-8" d="M767.1,817.02c-.3-.05-.63.12-.93.1l-1.46,110.74c-1.92.6-4.78-.63-5.8,1.17l-7.74.21-.27,11.73-30.97-.02c7.73-5.67,11.2-12.26,19.66-17.35l.19-108.55c8.01-8.43,14.67-16.78,21.37-25.84,2.08-2.81,5.26-5.02,6.94-7.56,6.68-.68-8.62,8.19,1.35,18.35-3.76,7.99-7.91,10.68-2.32,17Z"/>
  <path class="cls-38" d="M674.72,529.43c-.87,1.03-2.83.33-3.71.17-1.46-.27-2.73-1.52-1.65-3.31.95-1.59,2.55-1.51,3.55-.57.88.83,3.04,2.27,1.81,3.72Z"/>
  <path class="cls-11" d="M527.14,608.9l-6.8,8.17c-2.56,3.08-3.37,6.28-8.41,5.65-2.15,6.5-6.53,11.44-11.58,15.65-8.11,6.76-3.12,9.24-11.15,15.67l.3,42.94c5.12.89,9.92.85,14.57.32l.31,14.38,19.89.13c1.21,3.33-.09,6.32.73,10.55,6.57-.43,13.37,1.01,19.53-.37,4.01-.89,7.56-3.73,12.29-3.2,1.82-4.43,15.3-14.5,19.27-16.73,1.15-5.1,1.85,23.98,1.87,20.77l-.31,53.71,16.33.6c2,.78.81,5.09.86,6.86l-112.81-.14c-1.89,0-3.24.61-3.73,1.77-2.03-2.93-6.08-2.37-9.66-2.95l-.73-11.27-10.89-.54-1.36-13.59-15.95-.99c.49-4.38-.13-44.02.05-43.21l.51-127.18c2.07-.49,6.25,1.69,8.16-.26,4.51-4.62,9.19-8.19,14.14-12.2l11.01-8.92,32.1-27.79c3.42-2.96,6.88-5.4,9.29-8.85,3.65-1.97,7.76-3.57,12.07-3.4l.08,84.42Z"/>
  <path class="cls-30" d="M594.84,784.01c.09,2.87-.56,6.37.29,9.95,7.22-.37,12.1,3.4,16.89,7.99,2.15,2.06,5.58,2.5,6.94,5.05v30.3c-47.36-.14-61.02,3.99-102.54-20.66-12.94-7.68-24.02-16.95-35.34-26.68-1.56-1.34-1.89-3.07-2.76-4.33.49-1.16,1.84-1.77,3.73-1.77l112.81.14Z"/>
  <path class="cls-19" d="M655.94,917.9c-1.82,7.52-4.74,14.7-4.71,23.12l-26.18-.15c-4.39-17.84,3.34-20.76,9.1-28.92,5,.17,19.81.28,21.78,5.94Z"/>
  <path class="cls-50" d="M676.97,940.78c-8.24-.03-16.63.03-25.27.63-9.04.62-18.4,1.74-26.64-.53l26.18.15c-.03-8.43,2.88-15.61,4.71-23.12,3.85-.11,6.71-4.43,10.85-4.09,2.66.58,7.43,3.84,9.05,6.12,2.03,7.01.08,14.08,1.13,20.86Z"/>
  <path class="cls-49" d="M452.88,907.78c-4.01,5.91-4.73,13.26-5.72,20.17-7.75.97-15.69.58-24.11.09-.98-10.93,3.62-20.06,11.03-26.86,6.73.39,13.91,1.82,18.8,6.6Z"/>
  <path class="cls-22" d="M527,928.19c.15.39-.41.88-1.12.88l-52.87-.32-25.85-.8c.99-6.91,1.71-14.26,5.72-20.17,2.54-2.57,8.28-4.96,11.9-4.66,10.4.88,3.27,18.53,7.37,24.81l54.84.26Z"/>
  <path class="cls-48" d="M487.09,529.05c-4.13.34-8.65,2.09-13.35,2.78-11.09,1.62-22.35.96-33.52,1.35l.09,52.73-.51,127.18c-.86-3.75-.79-7.19-.78-11.09l.13-170.92c0-2.93,2.08-6.27.62-10.3,3.46,1.35,5.58-.14,8.4-.44,6.44-.68,12.84-.46,19.15-.13l.98,9.73c.35,3.46,14.71-2.56,18.82-.9Z"/>
  <path class="cls-1" d="M657.22,741.84c1.92,2.98-3.52,13.52-5.35,17.09l-7.38.53c.41,2.6-2.04,4.08-2.49,5.59-.06-.36.04-.92-.19-1.37-.31-.59-1.27-.2-2.16-.15l-11.7.67c4.69-9.05,11.78-16.81,17.38-25.27,3.86,1.54,9.52-.8,11.9,2.9Z"/>
  <path class="cls-4" d="M429.1,755.63c3.44-1.88,1.56-5.36,2.05-8.37l2.52-15.42c.93-5.68,2.56-8.32-2.04-12.87-2.58-2.55.62-8.89,3.15-11.29,4.26,6.33,5.23,13.77,2.54,20.44,1.07,7.9,2.48,15.63,1.39,23.56-1.6,3.69-2.93,5.54-9.61,3.95Z"/>
  <path class="cls-5" d="M758.91,929.03c1.03-1.8,3.88-.57,5.8-1.17l1.46-110.74-.2,111.71c-2.69.45-4.87.14-7.06.2Z"/>
  <path class="cls-9" d="M647.96,314.79c-5.71.39-10.23,5.93-9.76,12.02.17,2.18,4.34,2.26,5.24,3.65,1.5,2.31-1.51,3.81-3.07,4.38-2.71.99-3.1-1.93-5.08-3.14-6.38-3.89-13.32,5.6-12.02,5.13-.79.29-3.47.56-3.61-.34l-1.23-8.02c-2.8-.34-5.59-1.48-8.48-1.51s-2.87,3.44-3.47,5.64,2.44,2.99,3.62,5.1c2.48,4.43-1.29,12.43,3,14.33-.63-.06-2.16.3-2.9-.27-.56-3.56.02-6.87-.15-11.11l-64.11-13.47c-14.45-3.04-28.14-4.79-42.92-4.1-.82-.08-1.52-.17-1.13.75-1.96-.69-3.66-3.97-6.16-4.31-8.8-1.18-17.6-1.26-26.36-.88-3.39.15-5.7,3.38-8.33,4.5l-66-.81-52.11-.29-30.56-.59c-2-.04-3.66-1.74-5.4-1.41,14.25-9.79,29.31-18.52,42.59-29.62,7.78-.76,15.68-.14,23.99.05l50.77,1.13,28.37.77c10.02.27,19.5.96,29.29-1.42,7.19-1.74,14.53-3.67,22.01-3.92,9.64-.31,17.93,4.53,26.76,6.91,8.64,2.33,17.43,3.42,26.37,4.8l8.74,1.34,49.69,8.33,32.42,6.35Z"/>
  <path class="cls-39" d="M390.93,693.83c-2.86-7.37-2.43-15.42-3.55-23.59-.41-2.97-19.75-1.52-22.38,1.79l-.23-19.03,6.38-3.96c-.03-6.99,3.17-12.63,9.26-15.71,2.49-4.49,5.64-8.08,9.78-11.19,11.27-8.47,22.59-16.21,34.8-24.34l.18,68.72c-3.79,1.26-5.59,3.51-7.82,5.86-8.03,8.42-16.29,16.54-26.42,21.46Z"/>
  <path class="cls-2" d="M342.92,322.06c2.2,2.38,5.89-.05,9.37,1.08,2.8.91,6.32,6.4,6.01,9.41-.47,4.59-27.99,8.18-33.07,8.66-9.3.88-3.52,11.11-20.2,11.04l-16.04-.07c-6.86-.03-12.26-3.99-14.08-10.14,5.39-6.87,24.43-16.75,32.04-21.98,1.74-.33,3.4,1.37,5.4,1.41l30.56.59Z"/>
  <path class="cls-29" d="M390.93,693.83c-2.99,3.44-9.24,5.35-13.07,3.2-2.38-1.34-2.97-4.8-7.07-3.38-6.7,2.32-5.42-18.64-5.8-21.62,2.64-3.31,21.98-4.76,22.38-1.79,1.12,8.17.69,16.22,3.55,23.59Z"/>
  <path class="cls-40" d="M615.15,165.77c3.01,10.4,7.78,54.04,5.03,60.09l-3.39,7.46-4,10.69-7.87,15.96c-4.61.79-30.73-4.53-38-5.84l-36.71-6.62c-12.7-2.29-25.01-3.02-37.75-4.13l-30.58-2.68c.26-49.85,27.71-96.17,74.93-113.74,14.97-5.57,30.24-6.16,46.26-6.03,15.08,11.57,26.87,26.84,32.09,44.84Z"/>
  <path class="cls-42" d="M551.29,100.2c-.14.64-.17,1.56.33,1.92.67.48,1.55.46,2.61.46l44.34.34c.57,7.08-.48,12.9.53,18.91.26,1.59,3.32,1.69,4.65,1.16,4.27-1.68,6.3,2.11,8.63,2.09l16.95-.1c2.15,3.2,2.18,7.49,3.64,11.09,1.29,3.16,4.29,5.59,4.92,8.93.27,1.42-2.38,1.95-3.21,1.6-3.1-1.33-3.01-4.4-5.06-3.4-.56.27-1.15,1.04-1.51,1.94-2.36,5.95-6.21,2.8-7.22,6.34-.42,1.47.34,2.3,1.74,2.97,1.75.83,1.41,2.74,1.23,4.94-.12,1.44-2.8-.27-3.76.56-2.05,1.79-2.38,5.11-4.94,5.82-5.21-18-17.01-33.27-32.09-44.84-16.02-.13-31.29.46-46.26,6.03-47.22,17.58-74.66,63.9-74.93,113.74l30.58,2.68c12.74,1.11,25.05,1.84,37.75,4.13l36.71,6.62c7.27,1.31,33.39,6.63,38,5.84,2.64-.45,4.9,2.63,7.37,3.73,4.4,1.96,9.46,1.95,13.41,4.96,1.59,1.21,2.66,4.69,5.05,5.64-1.18,4.28,0,8.21,3.62,11.51-5.64,1.41-10.13-.27-15.31.34-3.95.47-7.95,1.48-12.07.49-1.6-.39-.81-3.65-1.18-4.72.69-1.16.62-3.69.4-5.12-19.73-5.13-39.62-8.35-59.72-12.25-24.97-4.83-45.07-7.3-69.65-8.54l-51.92-2.61-34.9-1.15-23.05-.87-79.9-1.05c2.94-.57,5.95-.32,8.93-.33l35.73-.08c.56-5.35.15-10.13.27-14.92,2.81,2.26,6.85.05,9.92,1.05,6.54,2.14,13.68.45,21.09.65l57.01,1.52c8.44.23,16.27,1.4,25.04.8,2.06-47.16,20.33-89.57,60.92-115.13,13.65-8.6,27.76-14.93,43.57-18.31.31-1.76.44-3.16.44-4.58,0-1.67-.14-3.35.24-5,.41,1.25,1.37,2.71,1.05,4.2ZM612.1,147.52c-1.59,1.46-1.09,4.03-.05,4.86,1.44,1.15,3.36.66,4.47-.42,1.04-1.01,1.72-3.2.95-4.12-1.19-1.44-3.98-1.61-5.37-.32Z"/>
  <path class="cls-33" d="M605.82,281.92c-1.82,3.08-.57,6.72-.94,10.23.48,3.76-18.04-.98-19.64-1.49-9.86-3.16-42.29-6.35-52.99-10.22-35.22-12.74-44.22-1.44-68.15-1.59,4.67-5.6,11.54,1.43,13.22-4.52,2.77-9.81,14.32-7.59,9.78-12.47-5.21-5.6-11.44-3.79-10.26-5.86,24.58,1.24,44.68,3.71,69.65,8.54,20.1,3.89,39.99,7.11,59.72,12.25.22,1.43.29,3.95-.4,5.12Z"/>
  <path class="cls-7" d="M690.99,268.91c.32,5.63-.52,25.1,2.05,24.94-5.16-1.09-10.36-1.43-16.02-2.8l-10.49-2.53-33.75-7.35c.13-4.09,2.63-6.64,4.74-9.53,3.53-4.82-.81-13.13,3.9-16.73,1.78-1.36,3.83-1.05,6.02-.41,9.24,2.67,18.69,3.23,27.6,6.44,1.91.89.89,5.24,2.41,6.21-.53-.34,13.83,3.19,13.54,1.76Z"/>
  <path class="cls-46" d="M724.01,329.87c0,.76-.68,1.36-1.99,1.35l-53.78-.44c-.79-3.75.72-8.45-.7-12.37-.35-.95-3.78.05-3.59-1.33,16.96,2.28,33.74,5.52,50.83,10.65,3.08.92,5.53,3.78,9.22,2.14Z"/>
  <path class="cls-7" d="M691.01,261.13c-.58.44-.73-.45-1.01-1.17l.12-42.05c.61-.44.85.37.85,1.14l.03,42.07Z"/>
  <path class="cls-13" d="M550.24,96c-.38,1.65-.24,3.33-.24,5-1.27-.62-1.14-2.78-2.12-3.78-2.5-2.57-5.75-.68-8.62,0-7.61,1.81-16.04.3-23.49,2.83-2.62,6.32-13.49,2.9-24.26,4.38l-21.13,2.91c-5.37.74-10.39,3.07-16.01,2.75-3.61,4.79-8.95,4.28-13.86,5.4-5.79,1.33-21.66,6.57-23.34,10.04-.25.53-.45,2.3.69,2.3l30.14.19c.96,0,2.38.29,2.06,1.05l-35.73-.09c-.25,1.85-1.85,2.59-2.29,4.11l-.6-5.02c-5.22,6.38-9.34,2.07-13.27,10.15-.6,1.24-9.82,8.24-12.07,12.74-4.59,9.21-10.46,17.33-14.06,27.13-6.8,18.51-9.02,38.01-11.52,57.65l-18.61.3c-3.07-1-7.11,1.21-9.92-1.05.07-2.65-.21-5.36,0-8,1.85,1.2.76-10.56.77-11l.93-33.65h11.43s2.56-27.18,2.56-27.18l12.34-.38c.94-6.29.8-12.22,1.02-18.85h13.83c.33-1.94.08-3.54.12-5.03,5.98-.75,12.03,0,18.69-.45l.33-14.63,13.03.16c.25-.16,1.55.08,1.76-.4.81-4.11.63-7.96.36-11.72l31.87-1.43.65-10.71c3.79-1.62,8.72-1.54,10.82,2.32,1.42-2.72,2.96-3.07,5.56-3.08l91.69-.44c1.47,1.07.08,4.22.48,5.46Z"/>
  <path class="cls-3" d="M409.15,103.87c.28,3.75.45,7.6-.36,11.72-.2.48-1.5.24-1.76.4-3.07-2.14-6.86-.46-11.16-1.03,1.59-3.22-2.04-10.1,2.65-11.87,2.45-.93,4.36.77,6.68,1.25,1.05.22,2.95-1.81,3.94-.46Z"/>
  <path class="cls-42" d="M332,227c.3-3.67-.91-7.64.77-11-.01.44,1.08,12.2-.77,11Z"/>
  <path class="cls-4" d="M702.1,339.65c2.65,1.05,7.27-.49,7.25,4.4l-36.67-.19c-2.33-7.87,13.09-2.91,15.47-3.29,4.7-.75,7.87-3.33,13.95-.92Z"/>
  <path class="cls-12" d="M543.39,447.94l-38.32-.18c-1.93,0-5.28-.19-5.57-2.03l-1.14-7.22c-4.06-.03-7.96-.19-12.18-.89l-.43-33.69c-.11-8.58,11.21-2.43,14.41-4.79,2.3-1.7-2.07-10.95,5.04-10.95l39.61-.02c1.44,0,2.63.83,3.27,1.34,2.44,1.94-.54,7.17,2.48,9.44,3.49,2.62,11.34-.75,11.34,2.93l.09,35.82c-4.23,1.14-11.81-.53-14.01.78-1.91,1.14.59,9.48-4.59,9.45Z"/>
  <path class="cls-28" d="M501.88,323.84c.8,2.61,2.56,5.55,2.6,8.72.16,13.34.41,25.96-.2,39.48-.21,4.64-2.57,11.48-7.62,12.34-9.1,1.56-18.26.67-27.42.49-6.74-.13-10.5-10.57-10.69-15.24-.41-10.11-1.41-39.05,2.47-46.48,2.63-1.11,4.94-4.35,8.33-4.5,8.77-.38,17.56-.31,26.36.88,2.5.34,4.2,3.62,6.16,4.31Z"/>
  <path class="cls-6" d="M514.99,527.89c-2.41,3.45-5.86,5.88-9.29,8.85l-32.1,27.79-11.01,8.92c-4.95,4.01-9.63,7.59-14.14,12.2-1.91,1.95-6.09-.23-8.16.26l-.09-52.73c11.17-.38,22.43.28,33.52-1.35,4.7-.69,9.23-2.43,13.35-2.78,7.37-.61,15-1.49,22.7-.68,2.34.25,3.42.49,5.21-.48Z"/>
  <path class="cls-27" d="M618.96,652.02c1.13,1.79,1.51,4.62-.43,6.73-12.44,13.53-24.97,26.56-38.31,39.25-1.5,1.43-3.46,2.47-4.12,4.06-3.97,2.23-17.45,12.31-19.27,16.73-4.73-.53-8.28,2.31-12.29,3.2-6.16,1.37-12.96-.06-19.53.37-.82-4.23.48-7.22-.73-10.55l-19.89-.13-.31-14.38.97-.11c6.32-.72,12.83-.27,19.22.28,1.65,3.21.25,6.23,1.23,10.68,6.46-1.31,14.86.97,21.01-2.66,19.42-11.47,46.45-39.77,61.66-57.24,3.5-.21,6.97-.7,9.97.55.93.47.49,2.63.81,3.21Z"/>
  <path class="cls-27" d="M504.08,697.31c-4.65.53-9.45.57-14.57-.32l-.3-42.94c8.03-6.43,3.04-8.91,11.15-15.67,5.05-4.21,9.43-9.15,11.58-15.65,5.04.63,5.85-2.57,8.41-5.65l6.8-8.17,29.32-22.98c3.28,3.54,4.96,7.95,6.61,12.76-14.43,10.1-25.81,22.32-38.01,34.36-3.56,3.51-6.82,5.81-9.62,10.61s-10.45,8.29-10.99,14.66c-1.1,13.04-.66,26.19-.39,39Z"/>
  <path class="cls-36" d="M577.96,722.84c-.02,3.21-.72-25.88-1.87-20.77.67-1.59,2.62-2.63,4.12-4.06,13.34-12.69,25.86-25.72,38.31-39.25,1.94-2.11,1.56-4.95.43-6.73,2.65.02,4.99,1.33,6.7,2.95,8.94,8.54-11.92,30.05-18.38,37.38-8.33,9.45-16.2,18.76-25.47,27.3-1.36,1.25-1.98,3.12-3.84,3.18Z"/>
  <path class="cls-16" d="M335.71,459.16l-55.44.04c-.3-4.09-.38-7.33-.19-11.21l55.85.03-.21,11.14Z"/>
  <path class="cls-17" d="M524.28,697.48c-6.39-.56-12.91-1-19.22-.28l-.02-23.02,20.51.23c.43,2.27,1.51,25-1.27,23.07Z"/>
  <path class="cls-20" d="M657.22,741.84c-2.38-3.7-8.03-1.37-11.9-2.9,4.91-7.42,10.05-15.48,16.07-22.5,1.78-.61,7.2.21,7.86,2.29,1.29,4.07,1.62,10.38.84,14.46-3.06,4.51-9.26,5.3-12.87,8.65Z"/>
  <path class="cls-24" d="M345.76,361.08c-.12,3.46-4.26,16.73-5.9,19.92-4.66.64-9,.77-13.7,0l.1-19.87,19.5-.05Z"/>
  <path class="cls-47" d="M295.03,381.41c-5.56.27-10.22.4-15.3-.15-1.02-6.61-.47-12.97-.16-19.75l15.33-.12.12,20.02Z"/>
  <path class="cls-43" d="M550,101c0,1.42-.14,2.82-.44,4.58-15.81,3.38-29.92,9.71-43.57,18.31-40.58,25.56-58.85,67.98-60.92,115.13-8.78.6-16.6-.58-25.04-.8l-57.01-1.52c-7.41-.2-14.55,1.49-21.09-.65l18.61-.3c2.49-19.65,4.72-39.15,11.52-57.65,3.6-9.8,9.47-17.93,14.06-27.13,2.25-4.5,11.47-11.5,12.07-12.74,3.93-8.09,8.05-3.77,13.27-10.15l.6,5.02c-1.45,5.04-4.55,10-4.58,15.83,1.46,3.03,8.56.05,9.55,1.55,2.1,3.19-15.79-1-20.66.79l-3.02,7.95c-2.59,6.82-6.8,13.04-7.17,20.49,8.08-.03,25.35,2.46,31.09.35,2.94-1.08,2.43-6.59,3.76-8.97,2.2-3.94,8.93-15.34,6.66-18.17-1.17-1.46-4.79-.44-5.63-1.55-.25-.34.22-1.87.73-1.81,9.59,1.25,20.3,1.79,30.66,1.05,3.61-6.44,6.61-12.57,8.77-19.93-3.76-1.88-7.69-1.23-12.14-1.61.32-.77-1.1-1.05-2.06-1.05l-30.14-.19c-1.14,0-.94-1.78-.69-2.3,1.67-3.47,17.54-8.71,23.34-10.04,4.91-1.12,10.25-.61,13.86-5.4,5.61.32,10.63-2.01,16.01-2.75l21.13-2.91c10.76-1.48,21.63,1.94,24.26-4.38,7.45-2.53,15.88-1.02,23.49-2.83,2.87-.68,6.12-2.57,8.62,0,.98,1,.85,3.16,2.12,3.78Z"/>
  <path class="cls-10" d="M612.1,147.52c1.39-1.28,4.18-1.11,5.37.32.77.92.09,3.11-.95,4.12-1.11,1.08-3.03,1.57-4.47.42-1.04-.84-1.54-3.4.05-4.86Z"/>
  <path class="cls-18" d="M450.06,129.06c4.45.37,8.39-.27,12.14,1.61-2.16,7.37-5.16,13.49-8.77,19.93-10.35.74-21.06.2-30.66-1.05-.5-.07-.98,1.47-.73,1.81.83,1.11,4.46.09,5.63,1.55,2.27,2.83-4.46,14.22-6.66,18.17-1.33,2.39-.82,7.89-3.76,8.97-5.75,2.11-23.01-.39-31.09-.35.37-7.44,4.58-13.67,7.17-20.49l3.02-7.95c4.87-1.79,22.77,2.4,20.66-.79-.99-1.5-8.09,1.48-9.55-1.55.04-5.83,3.13-10.79,4.58-15.83.44-1.52,2.04-2.26,2.29-4.11l35.73.09ZM435.92,145.98c4.35-.04,8.09,2.32,12.17,3.79,1.59-.7,1.41-3.87,1.02-5.91,4.9-.26,7.02-2.39,8.58-6.48.51-1.33,3.09-2.85,2.33-4.5-2.58-5.63-5.43,1.32-11.47-2.18-3.28-1.9-6.86.58-10.31.25-2.8-.27-5.17-1.35-7.77.08-1.71.94-3.19,2.57-4.07,5.39-2.49-2.74-3.85-3.64-5.93-3.66-4.08-.04-8,5.29-8.06,5.92-.27,3.1,4.47,5.78,7.58,8.27,3.21-2.93,6.21-1.6,10.37.79,1.47-3.34-2.9-3.2-4.05-4.95-1.51-2.29,1.79-4.14,3.73-3.54,4.71,1.45.74,6.79,5.88,6.74Z"/>
  <path class="cls-14" d="M435.92,145.98c-5.14.05-1.17-5.29-5.88-6.74-1.94-.59-5.24,1.25-3.73,3.54,1.14,1.74,5.52,1.61,4.05,4.95-4.16-2.39-7.16-3.72-10.37-.79-3.11-2.49-7.85-5.18-7.58-8.27.06-.63,3.98-5.96,8.06-5.92,2.08.02,3.44.92,5.93,3.66.88-2.81,2.36-4.44,4.07-5.39,2.59-1.43,4.97-.35,7.77-.08,3.45.34,7.03-2.15,10.31-.25,6.04,3.49,8.89-3.45,11.47,2.18.76,1.66-1.83,3.17-2.33,4.5-1.56,4.1-3.68,6.23-8.58,6.48.39,2.05.57,5.22-1.02,5.91-4.08-1.47-7.81-3.83-12.17-3.79Z"/>
</svg>