<svg width="1200" height="1200" viewBox="0 0 1200 1200" fill="none" xmlns="http://www.w3.org/2000/svg">
<rect width="1200" height="1200" fill="#C2F280"/>
<path d="M877 512H324V679.587H877V512Z" fill="#C2F280"/>
<path d="M402.954 589.885C400.037 585.803 396.149 583.762 391.181 583.762C386.213 583.762 387.185 584.299 385.348 585.266C383.404 586.233 382.432 587.844 382.432 590.1C382.432 592.356 383.188 593.216 384.808 594.075C386.429 594.934 388.373 595.579 390.857 596.224C393.233 596.761 395.933 597.405 398.633 598.05C401.442 598.694 404.034 599.661 406.41 600.95C408.786 602.239 410.838 603.958 412.458 606.214C414.079 608.47 414.835 611.478 414.835 615.453C414.835 619.428 414.079 622.006 412.566 624.477C411.054 626.948 409.002 628.882 406.518 630.386C404.034 631.89 401.334 632.964 398.201 633.608C395.069 634.253 392.045 634.575 388.913 634.575C384.268 634.575 379.948 633.931 376.06 632.534C372.171 631.245 368.607 628.774 365.583 625.336L375.628 615.99C377.572 618.139 379.624 619.858 381.784 621.254C383.944 622.651 386.645 623.295 389.885 623.295C393.125 623.295 392.045 623.188 393.233 622.973C394.421 622.758 395.501 622.328 396.473 621.684C397.445 621.147 398.309 620.395 398.957 619.535C399.605 618.676 399.929 617.602 399.929 616.527C399.929 614.486 399.173 612.875 397.553 611.908C395.933 610.941 393.989 610.082 391.505 609.437C389.129 608.793 386.429 608.255 383.728 607.718C380.92 607.181 378.328 606.322 375.952 605.14C373.576 603.958 371.523 602.239 369.903 600.091C368.283 597.942 367.527 594.934 367.527 591.174C367.527 587.414 368.175 584.944 369.579 582.58C370.983 580.109 372.82 578.176 374.98 576.564C377.248 574.953 379.84 573.879 382.756 573.127C385.672 572.375 388.589 572.052 391.613 572.052C394.637 572.052 399.605 572.697 403.494 574.093C407.382 575.49 410.622 577.853 412.998 581.076L402.954 589.993V589.885Z" fill="#333333"/>
<path d="M426.499 573.341H440.756V582.902H440.972C442.377 579.894 444.537 577.316 447.453 575.168C450.369 573.019 454.365 571.837 459.334 571.837C464.302 571.837 466.786 572.482 469.486 573.879C472.295 575.168 474.563 576.994 476.291 579.142C478.019 581.291 479.315 583.762 480.071 586.555C480.827 589.348 481.151 592.356 481.151 595.364V633.071H466.138V602.884C466.138 601.273 466.138 599.339 465.922 597.298C465.706 595.257 465.274 593.323 464.626 591.604C463.87 589.778 462.79 588.381 461.278 587.092C459.766 585.91 457.714 585.266 455.121 585.266C452.529 585.266 450.477 585.696 448.857 586.555C447.129 587.414 445.725 588.489 444.645 589.885C443.565 591.282 442.701 592.893 442.16 594.72C441.62 596.546 441.404 598.48 441.404 600.413V632.964H426.391V573.341H426.499Z" fill="#333333"/>
<path d="M545.848 624.047H545.632C543.472 627.7 540.556 630.385 536.883 631.997C533.211 633.608 529.215 634.468 525.003 634.468C520.79 634.468 516.146 633.608 512.582 631.997C508.909 630.385 505.885 628.13 503.293 625.336C500.701 622.543 498.757 619.213 497.461 615.346C496.165 611.478 495.408 607.396 495.408 602.991C495.408 598.587 496.165 594.505 497.569 590.637C498.973 586.77 500.917 583.547 503.509 580.646C506.101 577.853 509.125 575.597 512.69 573.986C516.254 572.374 520.25 571.515 524.463 571.515C528.675 571.515 529.755 571.837 531.915 572.374C534.075 572.912 536.019 573.664 537.64 574.63C539.26 575.597 540.772 576.564 541.852 577.531C543.04 578.605 544.012 579.572 544.768 580.539H545.092V538.964H560.105V632.964H545.848V624.047V624.047ZM510.314 603.099C510.314 605.462 510.746 607.611 511.502 609.867C512.258 612.015 513.446 613.949 514.958 615.56C516.47 617.172 518.306 618.568 520.574 619.535C522.734 620.502 525.219 621.039 527.919 621.039C530.619 621.039 533.103 620.502 535.263 619.535C537.424 618.568 539.26 617.172 540.88 615.56C542.392 613.949 543.58 612.015 544.336 609.867C545.092 607.718 545.524 605.462 545.524 603.099C545.524 600.735 545.092 598.587 544.336 596.331C543.58 594.182 542.392 592.249 540.88 590.637C539.368 589.026 537.532 587.629 535.263 586.662C533.103 585.695 530.619 585.158 527.919 585.158C525.219 585.158 522.734 585.695 520.574 586.662C518.414 587.629 516.578 589.026 514.958 590.637C513.446 592.249 512.258 594.182 511.502 596.331C510.746 598.479 510.314 600.735 510.314 603.099Z" fill="#333333"/>
<path d="M568.962 573.341H585.271L598.232 615.131H598.448L610.545 573.341H626.854L639.815 615.131H640.031L652.56 573.341H667.681L647.267 633.071H632.362L618.105 592.249H617.889L605.252 633.071H589.699L568.854 573.341H568.962Z" fill="#333333"/>
<path d="M676.646 573.341H691.659V582.795H691.875C693.495 579.357 695.871 576.564 699.003 574.738C702.135 572.804 705.592 571.837 709.588 571.837C713.584 571.837 711.424 571.837 712.288 572.052C713.152 572.267 714.016 572.375 714.988 572.697V587.092C713.692 586.77 712.504 586.448 711.316 586.233C710.128 586.018 708.94 585.91 707.752 585.91C704.295 585.91 701.487 586.555 699.327 587.844C697.167 589.133 695.547 590.637 694.467 592.249C693.387 593.86 692.631 595.579 692.199 597.19C691.875 598.802 691.659 600.091 691.659 600.95V632.964H676.646V573.341Z" fill="#333333"/>
<path d="M725.357 538.964H740.37V598.05L763.484 573.341H782.709L756.895 600.413L784.329 632.964H764.456L740.586 602.454H740.37V632.964H725.357V538.964Z" fill="#333333"/>
<path d="M824.508 589.885C821.592 585.803 817.704 583.762 812.735 583.762C807.767 583.762 808.739 584.299 806.903 585.266C804.959 586.233 803.987 587.844 803.987 590.1C803.987 592.356 804.743 593.216 806.363 594.075C807.983 594.934 809.927 595.579 812.411 596.224C814.787 596.761 817.488 597.405 820.188 598.05C822.996 598.694 825.588 599.661 827.964 600.95C830.341 602.239 832.393 603.958 834.013 606.214C835.633 608.47 836.389 611.478 836.389 615.453C836.389 619.428 835.633 622.006 834.121 624.477C832.609 626.948 830.557 628.882 828.072 630.386C825.588 631.89 822.888 632.964 819.756 633.608C816.624 634.253 813.599 634.575 810.467 634.575C805.823 634.575 801.503 633.931 797.614 632.534C793.726 631.245 790.162 628.774 787.137 625.336L797.182 615.99C799.126 618.139 801.178 619.858 803.339 621.254C805.499 622.651 808.199 623.295 811.439 623.295C814.679 623.295 813.599 623.188 814.787 622.973C815.976 622.758 817.056 622.328 818.028 621.684C819 621.147 819.864 620.395 820.512 619.535C821.16 618.676 821.484 617.602 821.484 616.527C821.484 614.486 820.728 612.875 819.108 611.908C817.488 610.941 815.544 610.082 813.059 609.437C810.683 608.793 807.983 608.255 805.283 607.718C802.475 607.181 799.882 606.322 797.506 605.14C795.13 603.958 793.078 602.239 791.458 600.091C789.838 597.942 789.082 594.934 789.082 591.174C789.082 587.414 789.73 584.944 791.134 582.58C792.538 580.109 794.374 578.176 796.534 576.564C798.802 574.953 801.395 573.879 804.311 573.127C807.227 572.375 810.143 572.052 813.167 572.052C816.192 572.052 821.16 572.697 825.048 574.093C828.936 575.49 832.177 577.853 834.553 581.076L824.508 589.993V589.885Z" fill="#333333"/>
</svg>
