<?xml version="1.0" encoding="UTF-8"?><svg id="uuid-a59d7a17-349d-494e-8f34-e93b69eef785" xmlns="http://www.w3.org/2000/svg" width="512" height="162.9" viewBox="0 0 512 162.9"><defs><style>.uuid-578cdebc-0d2c-412a-ace0-329df47276cf{fill:#333;}.uuid-3e4bb149-1be7-4262-80aa-56b7f16e1918{fill:#c2f280;}</style></defs><g id="uuid-f59c9d0e-1080-4894-bd5b-3c22821fe374"><rect class="uuid-3e4bb149-1be7-4262-80aa-56b7f16e1918" width="512" height="156"/><g><path class="uuid-578cdebc-0d2c-412a-ace0-329df47276cf" d="M73.1,72.5c-2.7-3.8-6.3-5.7-10.9-5.7s-3.7,.5-5.4,1.4c-1.8,.9-2.7,2.4-2.7,4.5s.7,2.9,2.2,3.7c1.5,.8,3.3,1.4,5.6,2,2.2,.5,4.7,1.1,7.2,1.7,2.6,.6,5,1.5,7.2,2.7,2.2,1.2,4.1,2.8,5.6,4.9,1.5,2.1,2.2,4.9,2.2,8.6s-.7,6.1-2.1,8.4c-1.4,2.3-3.3,4.1-5.6,5.5-2.3,1.4-4.8,2.4-7.7,3-2.9,.6-5.7,.9-8.6,.9-4.3,0-8.3-.6-11.9-1.9-3.6-1.2-6.9-3.5-9.7-6.7l9.3-8.7c1.8,2,3.7,3.6,5.7,4.9,2,1.3,4.5,1.9,7.5,1.9s2-.1,3.1-.3c1.1-.2,2.1-.6,3-1.2,.9-.5,1.7-1.2,2.3-2,.6-.8,.9-1.8,.9-2.8,0-1.9-.7-3.4-2.2-4.3-1.5-.9-3.3-1.7-5.6-2.3-2.2-.6-4.7-1.1-7.2-1.6-2.6-.5-5-1.3-7.2-2.4-2.2-1.1-4.1-2.7-5.6-4.7-1.5-2-2.2-4.8-2.2-8.3s.6-5.8,1.9-8c1.3-2.3,3-4.1,5-5.6,2.1-1.5,4.5-2.5,7.2-3.2,2.7-.7,5.4-1,8.2-1s7.4,.6,11,1.9c3.6,1.3,6.6,3.5,8.8,6.5l-9.3,8.3Z"/><path class="uuid-578cdebc-0d2c-412a-ace0-329df47276cf" d="M94.9,57.1h13.2v8.9h.2c1.3-2.8,3.3-5.2,6-7.2,2.7-2,6.4-3.1,11-3.1s6.9,.6,9.4,1.9c2.6,1.2,4.7,2.9,6.3,4.9,1.6,2,2.8,4.3,3.5,6.9,.7,2.6,1,5.4,1,8.2v35.1h-13.9v-28.1c0-1.5,0-3.3-.2-5.2-.2-1.9-.6-3.7-1.2-5.3-.7-1.7-1.7-3-3.1-4.2-1.4-1.1-3.3-1.7-5.7-1.7s-4.3,.4-5.8,1.2c-1.6,.8-2.9,1.8-3.9,3.1-1,1.3-1.8,2.8-2.3,4.5-.5,1.7-.7,3.5-.7,5.3v30.3h-13.9V57.1Z"/><path class="uuid-578cdebc-0d2c-412a-ace0-329df47276cf" d="M205.4,104.3h-.2c-2,3.4-4.7,5.9-8.1,7.4-3.4,1.5-7.1,2.3-11,2.3s-8.2-.8-11.5-2.3c-3.4-1.5-6.2-3.6-8.6-6.2-2.4-2.6-4.2-5.7-5.4-9.3-1.2-3.6-1.9-7.4-1.9-11.5s.7-7.9,2-11.5c1.3-3.6,3.1-6.6,5.5-9.3,2.4-2.6,5.2-4.7,8.5-6.2,3.3-1.5,7-2.3,10.9-2.3s4.9,.3,6.9,.8c2,.5,3.8,1.2,5.3,2.1,1.5,.9,2.9,1.8,3.9,2.7,1.1,1,2,1.9,2.7,2.8h.3V25.1h13.9V112.6h-13.2v-8.3Zm-32.9-19.5c0,2.2,.4,4.2,1.1,6.3,.7,2,1.8,3.8,3.2,5.3,1.4,1.5,3.1,2.8,5.2,3.7,2,.9,4.3,1.4,6.8,1.4s4.8-.5,6.8-1.4c2-.9,3.7-2.2,5.2-3.7,1.4-1.5,2.5-3.3,3.2-5.3,.7-2,1.1-4.1,1.1-6.3s-.4-4.2-1.1-6.3c-.7-2-1.8-3.8-3.2-5.3-1.4-1.5-3.1-2.8-5.2-3.7-2-.9-4.3-1.4-6.8-1.4s-4.8,.5-6.8,1.4c-2,.9-3.7,2.2-5.2,3.7-1.4,1.5-2.5,3.3-3.2,5.3-.7,2-1.1,4.1-1.1,6.3Z"/><path class="uuid-578cdebc-0d2c-412a-ace0-329df47276cf" d="M226.8,57.1h15.1l12,38.9h.2l11.2-38.9h15.1l12,38.9h.2l11.6-38.9h14l-18.9,55.6h-13.8l-13.2-38h-.2l-11.7,38h-14.4l-19.3-55.6Z"/><path class="uuid-578cdebc-0d2c-412a-ace0-329df47276cf" d="M326.5,57.1h13.9v8.8h.2c1.5-3.2,3.7-5.8,6.6-7.5,2.9-1.8,6.1-2.7,9.8-2.7s1.7,0,2.5,.2c.8,.2,1.6,.3,2.5,.6v13.4c-1.2-.3-2.3-.6-3.4-.8-1.1-.2-2.2-.3-3.3-.3-3.2,0-5.8,.6-7.8,1.8-2,1.2-3.5,2.6-4.5,4.1-1,1.5-1.7,3.1-2.1,4.6-.3,1.5-.5,2.7-.5,3.5v29.8h-13.9V57.1Z"/><path class="uuid-578cdebc-0d2c-412a-ace0-329df47276cf" d="M371.6,25.1h13.9v55l21.4-23h17.8l-23.9,25.2,25.4,30.3h-18.4l-22.1-28.4h-.2v28.4h-13.9V25.1Z"/><path class="uuid-578cdebc-0d2c-412a-ace0-329df47276cf" d="M463.4,72.5c-2.7-3.8-6.3-5.7-10.9-5.7s-3.7,.5-5.4,1.4c-1.8,.9-2.7,2.4-2.7,4.5s.7,2.9,2.2,3.7c1.5,.8,3.3,1.4,5.6,2,2.2,.5,4.7,1.1,7.2,1.7,2.6,.6,5,1.5,7.2,2.7,2.2,1.2,4.1,2.8,5.6,4.9,1.5,2.1,2.2,4.9,2.2,8.6s-.7,6.1-2.1,8.4c-1.4,2.3-3.3,4.1-5.6,5.5-2.3,1.4-4.8,2.4-7.7,3-2.9,.6-5.7,.9-8.6,.9-4.3,0-8.3-.6-11.9-1.9-3.6-1.2-6.9-3.5-9.7-6.7l9.3-8.7c1.8,2,3.7,3.6,5.7,4.9,2,1.3,4.5,1.9,7.5,1.9s2-.1,3.1-.3c1.1-.2,2.1-.6,3-1.2,.9-.5,1.7-1.2,2.3-2,.6-.8,.9-1.8,.9-2.8,0-1.9-.7-3.4-2.2-4.3-1.5-.9-3.3-1.7-5.6-2.3-2.2-.6-4.7-1.1-7.2-1.6-2.6-.5-5-1.3-7.2-2.4-2.2-1.1-4.1-2.7-5.6-4.7-1.5-2-2.2-4.8-2.2-8.3s.6-5.8,1.9-8c1.3-2.3,3-4.1,5-5.6,2.1-1.5,4.5-2.5,7.2-3.2,2.7-.7,5.4-1,8.2-1s7.4,.6,11,1.9c3.6,1.3,6.6,3.5,8.8,6.5l-9.3,8.3Z"/></g></g></svg>